<svg xmlns="http://www.w3.org/2000/svg" viewBox="0 0 600 150">
  <g transform="translate(0, 0)">
    <svg x="0" y="0" width="120" height="120" viewBox="0 0 460 460">
      <g transform="translate(0.000000,460.000000) scale(0.100000,-0.100000)"
fill="#5b2d8e" stroke="none">
<path d="M1955 4580 c-6 -18 -15 -20 -94 -20 -75 0 -91 -3 -106 -20 -14 -16
-31 -20 -80 -20 -49 0 -66 -4 -80 -20 -13 -14 -31 -20 -60 -20 -29 0 -47 -6
-60 -20 -10 -11 -30 -20 -44 -20 -15 0 -31 -8 -39 -20 -7 -12 -23 -20 -40 -20
-16 0 -32 -8 -40 -20 -7 -12 -23 -20 -40 -20 -16 0 -32 -8 -40 -20 -7 -12 -23
-20 -40 -20 -16 0 -32 -8 -40 -20 -7 -11 -23 -20 -37 -20 -17 0 -37 -14 -61
-40 -23 -25 -45 -40 -60 -40 -15 0 -37 -15 -60 -40 -21 -23 -45 -40 -58 -40
-30 0 -276 -246 -276 -275 0 -14 -36 -57 -100 -120 -68 -66 -100 -105 -100
-120 0 -14 -16 -37 -40 -59 -26 -24 -40 -44 -40 -61 0 -14 -9 -30 -20 -37 -12
-8 -20 -24 -20 -40 0 -17 -8 -33 -20 -40 -12 -8 -20 -24 -20 -40 0 -17 -8 -33
-20 -40 -12 -8 -20 -24 -20 -40 0 -17 -8 -33 -20 -40 -12 -8 -20 -24 -20 -40
0 -16 -9 -33 -22 -42 -18 -13 -22 -25 -20 -61 1 -35 -3 -47 -20 -59 -18 -13
-21 -24 -19 -79 1 -52 -2 -67 -19 -82 -16 -15 -20 -30 -20 -86 0 -59 -3 -68
-20 -74 -19 -6 -20 -15 -20 -345 0 -330 1 -339 20 -345 18 -6 20 -15 20 -94 0
-76 3 -90 20 -106 17 -15 20 -30 19 -82 -2 -55 1 -66 19 -79 17 -12 21 -24 20
-59 -2 -36 2 -48 20 -60 17 -13 21 -25 20 -60 -2 -36 2 -48 20 -61 13 -9 22
-26 22 -42 0 -16 8 -32 20 -40 12 -7 20 -23 20 -40 0 -16 8 -32 20 -40 12 -7
20 -23 20 -40 0 -16 8 -32 20 -40 11 -7 20 -23 20 -37 0 -17 14 -37 40 -61 24
-22 40 -45 40 -59 0 -15 32 -54 100 -120 64 -64 100 -106 100 -120 0 -29 206
-235 235 -235 14 0 44 -23 79 -60 38 -40 65 -60 81 -60 14 0 36 -15 59 -40 24
-26 44 -40 61 -40 14 0 30 -9 37 -20 8 -12 24 -20 40 -20 17 0 33 -8 40 -20 8
-12 24 -20 40 -20 17 0 33 -8 40 -20 8 -12 24 -20 39 -20 14 0 34 -9 44 -20
13 -14 31 -20 60 -20 29 0 47 -6 60 -20 13 -14 31 -20 60 -20 29 0 47 -6 60
-20 14 -16 31 -20 80 -20 49 0 66 -4 80 -20 15 -17 31 -20 106 -20 79 0 88 -2
94 -20 6 -19 15 -20 285 -20 270 0 279 1 285 20 6 19 15 20 134 20 115 0 130
2 146 20 13 14 31 20 60 20 29 0 47 6 60 20 13 14 31 20 60 20 29 0 47 6 60
20 13 14 31 20 60 20 29 0 47 6 60 20 13 14 31 20 60 20 29 0 47 6 60 20 10
11 30 20 44 20 15 0 31 8 39 20 7 11 23 20 37 20 17 0 37 14 61 40 23 25 45
40 60 40 15 0 37 15 60 40 21 23 45 40 58 40 30 0 476 446 476 476 0 13 17 37
40 58 25 23 40 45 40 60 0 15 15 37 40 60 26 24 40 44 40 61 0 14 9 30 20 37
12 8 20 24 20 40 0 17 8 33 20 40 12 8 20 24 20 40 0 16 9 33 22 42 18 13 22
25 20 61 -1 35 3 47 20 60 18 12 22 24 20 60 -1 35 3 47 20 60 18 12 22 24 20
59 -1 32 4 48 18 61 17 15 20 31 20 106 0 79 2 88 20 94 20 6 20 15 20 405 0
390 0 399 -20 405 -17 6 -20 15 -20 74 0 56 -4 71 -20 86 -17 15 -20 30 -19
82 2 55 -1 66 -19 79 -17 12 -21 24 -20 59 2 36 -2 48 -20 61 -13 9 -22 26
-22 42 0 16 -8 32 -20 40 -12 7 -20 23 -20 40 0 16 -8 32 -20 40 -12 7 -20 23
-20 40 0 16 -8 32 -20 40 -12 7 -20 23 -20 40 0 16 -8 32 -20 40 -11 7 -20 23
-20 37 0 17 -14 37 -40 61 -24 22 -40 45 -40 59 0 15 -32 54 -100 120 -66 65
-100 106 -100 121 0 28 -86 114 -115 114 -14 0 -49 28 -99 80 -53 54 -86 80
-101 80 -14 0 -37 16 -59 40 -23 25 -45 40 -60 40 -15 0 -37 15 -60 40 -24 26
-44 40 -61 40 -14 0 -30 9 -37 20 -8 12 -24 20 -39 20 -14 0 -34 9 -44 20 -13
14 -31 20 -61 20 -33 0 -47 5 -56 20 -8 12 -24 20 -39 20 -14 0 -34 9 -44 20
-13 14 -31 20 -60 20 -29 0 -47 6 -60 20 -13 14 -31 20 -60 20 -29 0 -47 6
-60 20 -15 17 -31 20 -106 20 -79 0 -88 2 -94 20 -6 20 -15 20 -365 20 -350 0
-359 0 -365 -20z m1277 -1040 c12 -18 24 -20 139 -20 113 0 128 -2 144 -20 13
-14 31 -20 60 -20 29 0 47 -6 60 -20 13 -14 31 -20 61 -20 33 0 47 -5 56 -20
7 -11 24 -20 38 -20 35 0 170 -135 170 -170 0 -14 9 -31 20 -38 12 -7 20 -23
20 -40 0 -16 8 -32 20 -40 16 -10 20 -23 20 -72 0 -49 -4 -61 -22 -74 -18 -13
-22 -24 -20 -61 1 -35 -3 -48 -18 -57 -12 -8 -20 -24 -20 -39 0 -18 -13 -38
-40 -63 -25 -23 -40 -45 -40 -60 0 -15 -15 -37 -40 -60 -25 -22 -40 -45 -40
-59 0 -16 -25 -48 -80 -101 -53 -52 -80 -86 -80 -101 0 -14 -22 -43 -60 -79
-39 -37 -60 -65 -60 -80 0 -15 -27 -48 -80 -100 -53 -52 -80 -86 -80 -101 0
-14 -22 -43 -60 -79 -39 -37 -60 -65 -60 -80 0 -15 -27 -48 -80 -100 -53 -52
-80 -86 -80 -101 0 -14 -22 -43 -60 -79 -38 -37 -60 -65 -60 -80 0 -15 -32
-54 -100 -121 -70 -68 -100 -105 -100 -121 0 -13 -9 -28 -21 -34 -13 -7 -19
-19 -17 -32 3 -21 7 -21 193 -19 172 2 192 4 211 22 16 15 35 19 101 19 67 0
83 3 98 20 13 14 31 20 60 20 29 0 47 6 60 20 13 14 31 20 60 20 29 0 47 6 60
20 10 11 30 20 44 20 15 0 31 8 39 20 7 11 22 20 35 20 31 0 277 245 277 275
0 12 10 30 23 42 12 11 35 34 50 52 15 17 32 29 37 26 19 -12 10 -51 -16 -74
-22 -19 -25 -27 -19 -61 6 -33 3 -41 -14 -52 -13 -8 -21 -23 -21 -40 0 -16 -9
-33 -22 -42 -18 -13 -22 -24 -20 -61 1 -35 -3 -48 -18 -57 -12 -8 -20 -24 -20
-40 0 -17 -8 -33 -20 -40 -12 -8 -20 -24 -20 -40 0 -17 -8 -33 -20 -40 -11 -7
-20 -24 -20 -38 0 -32 -95 -130 -127 -130 -14 0 -37 -16 -59 -40 -35 -39 -39
-40 -99 -40 -49 0 -66 -4 -80 -20 -18 -20 -31 -20 -735 -20 -543 0 -719 3
-728 12 -7 7 -12 29 -12 49 0 30 7 43 40 73 25 23 40 45 40 60 0 15 15 37 40
60 25 23 40 45 40 60 0 15 15 37 40 60 25 23 40 45 40 60 0 15 15 37 40 60 25
22 40 45 40 59 0 16 25 48 80 101 52 51 80 86 80 100 0 15 33 55 100 121 65
63 100 105 100 119 0 15 88 109 280 301 189 188 280 286 280 300 0 14 43 63
120 140 80 78 120 125 120 140 0 14 35 55 100 120 69 67 100 105 100 121 0 14
15 35 40 57 22 19 40 41 40 49 0 18 -53 58 -78 58 -10 0 -27 9 -37 20 -14 16
-31 20 -80 20 -49 0 -66 4 -80 20 -17 18 -31 20 -165 20 -134 0 -148 -2 -165
-20 -13 -14 -31 -20 -60 -20 -35 0 -47 -6 -80 -40 -23 -23 -48 -40 -62 -40
-29 0 -73 -45 -73 -74 0 -15 -15 -37 -40 -60 -25 -23 -40 -45 -40 -60 0 -15
-15 -37 -40 -60 -26 -24 -40 -44 -40 -61 0 -14 -9 -30 -20 -37 -12 -8 -20 -24
-20 -40 0 -17 -8 -33 -20 -40 -12 -8 -20 -24 -20 -40 0 -17 -8 -33 -20 -40
-12 -8 -20 -24 -20 -40 0 -17 -8 -33 -20 -40 -12 -8 -20 -24 -20 -40 0 -17 -8
-33 -20 -40 -12 -8 -20 -24 -20 -40 0 -17 -8 -33 -20 -40 -12 -8 -20 -24 -20
-40 0 -17 -8 -33 -20 -40 -12 -8 -20 -24 -20 -40 0 -17 -8 -33 -20 -40 -12 -8
-20 -24 -20 -40 0 -17 -8 -33 -20 -40 -12 -8 -20 -24 -20 -40 0 -17 -8 -33
-20 -40 -12 -8 -20 -24 -20 -39 0 -18 -13 -38 -40 -63 -26 -24 -40 -44 -40
-61 0 -14 -9 -30 -20 -37 -12 -8 -20 -24 -20 -40 0 -17 -8 -33 -20 -40 -11 -7
-20 -24 -20 -38 0 -27 -57 -90 -82 -90 -22 0 -38 21 -38 50 0 14 -8 30 -20 38
-11 7 -20 23 -20 37 0 17 -14 37 -40 61 -27 25 -40 45 -40 63 0 15 -8 31 -20
39 -12 7 -20 23 -20 40 0 16 -8 32 -20 40 -12 7 -20 23 -20 40 0 16 -8 32 -20
40 -12 7 -20 23 -20 40 0 16 -8 32 -20 40 -12 7 -20 23 -20 40 0 16 -8 32 -20
40 -12 7 -20 23 -20 40 0 16 -8 32 -20 40 -12 7 -20 23 -20 40 0 16 -8 32 -20
40 -11 7 -20 23 -20 37 0 17 -14 37 -40 61 -27 25 -40 45 -40 63 0 15 -8 31
-20 39 -12 7 -20 23 -20 40 0 16 -8 32 -20 40 -12 7 -20 23 -20 40 0 16 -8 32
-20 40 -11 7 -20 23 -20 37 0 17 -14 37 -40 61 -25 23 -40 45 -40 60 0 15 -15
37 -40 60 -29 26 -40 44 -40 65 0 25 -4 29 -28 29 -16 0 -37 9 -47 20 -13 14
-31 20 -60 20 -29 0 -47 6 -60 20 -16 18 -31 20 -140 20 -109 0 -124 2 -140
20 -12 14 -31 20 -59 20 -32 0 -47 7 -73 32 -29 28 -33 38 -33 87 0 48 4 59
32 88 l32 33 378 0 c367 0 378 -1 390 -20 8 -12 24 -20 38 -20 17 0 40 -14 65
-40 21 -22 48 -40 60 -40 27 0 45 -18 45 -47 0 -14 15 -37 40 -59 27 -25 40
-45 40 -63 0 -15 8 -31 20 -39 12 -7 20 -23 20 -40 0 -16 8 -32 20 -40 12 -7
20 -23 20 -40 0 -16 8 -32 20 -40 12 -7 20 -23 20 -40 0 -16 8 -32 20 -40 15
-9 19 -22 18 -57 -2 -37 2 -48 20 -61 19 -13 22 -24 22 -82 0 -56 3 -69 20
-80 17 -10 20 -23 20 -80 0 -57 3 -69 20 -80 17 -10 20 -21 18 -60 -2 -36 0
-47 14 -50 25 -5 68 44 68 78 0 20 6 31 20 35 21 7 24 19 21 72 -2 23 3 36 18
45 13 8 21 23 21 40 0 16 9 33 22 42 18 13 22 24 20 61 -1 35 3 48 18 57 12 8
20 24 20 40 0 17 8 33 20 40 12 8 20 24 20 40 0 17 8 33 20 40 12 8 20 24 20
40 0 17 8 33 20 40 12 8 20 24 20 40 0 17 8 33 20 40 11 7 20 24 20 38 0 36
254 290 290 290 14 0 31 9 38 20 9 15 23 20 56 20 30 0 48 6 61 20 16 18 31
20 144 20 115 0 127 2 139 20 7 11 21 20 32 20 11 0 25 -9 32 -20z m-2085
-592 c36 -36 53 -60 53 -78 0 -14 9 -31 20 -38 12 -7 20 -23 20 -40 0 -16 8
-32 20 -40 12 -7 20 -23 20 -40 0 -16 8 -32 20 -40 11 -7 20 -23 20 -37 0 -17
14 -37 40 -61 27 -25 40 -45 40 -63 0 -15 8 -31 20 -39 12 -7 20 -23 20 -40 0
-16 8 -32 20 -40 12 -7 20 -23 20 -40 0 -16 8 -32 20 -40 11 -7 20 -23 20 -37
0 -17 14 -37 40 -61 27 -25 40 -45 40 -63 0 -15 8 -31 20 -39 12 -7 20 -23 20
-40 0 -16 8 -32 20 -40 12 -7 20 -23 20 -40 0 -16 8 -32 20 -40 11 -7 20 -23
20 -37 0 -17 14 -37 40 -61 27 -25 40 -45 40 -63 0 -15 8 -31 20 -39 11 -7 20
-23 20 -37 0 -17 14 -37 40 -61 27 -25 40 -45 40 -63 0 -15 8 -31 20 -39 15
-9 19 -22 18 -57 -2 -37 2 -48 20 -61 12 -8 22 -24 22 -34 0 -10 -10 -26 -22
-34 -18 -13 -22 -24 -20 -61 1 -35 -3 -48 -18 -57 -12 -8 -20 -24 -20 -40 0
-17 -8 -33 -20 -40 -12 -8 -20 -24 -20 -39 0 -18 -13 -38 -40 -63 -25 -22 -40
-45 -40 -59 0 -32 -18 -47 -59 -47 -44 0 -101 51 -101 90 0 14 -8 30 -20 38
-11 7 -20 23 -20 37 0 17 -14 37 -40 61 -27 25 -40 45 -40 63 0 15 -8 31 -20
39 -12 7 -20 23 -20 40 0 16 -8 32 -20 40 -12 7 -20 23 -20 40 0 16 -8 32 -20
40 -11 7 -20 23 -20 37 0 17 -14 37 -40 61 -27 25 -40 45 -40 63 0 15 -8 31
-20 39 -11 7 -20 23 -20 37 0 17 -14 37 -40 61 -27 25 -40 45 -40 63 0 15 -8
31 -20 39 -12 7 -20 23 -20 40 0 16 -8 32 -20 40 -12 7 -20 23 -20 40 0 16 -8
32 -20 40 -12 7 -20 23 -20 40 0 16 -8 32 -20 40 -12 7 -20 23 -20 40 0 16 -8
32 -20 40 -12 7 -20 23 -20 40 0 16 -8 32 -20 40 -12 7 -20 23 -20 40 0 16 -8
32 -20 40 -12 7 -20 23 -20 40 0 16 -8 32 -20 40 -12 7 -20 23 -20 40 0 16 -8
32 -20 40 -12 7 -20 23 -20 40 0 16 -8 32 -20 40 -12 7 -20 23 -20 40 0 16 -8
32 -20 40 -12 7 -20 23 -20 40 0 16 -8 32 -20 40 -12 7 -20 23 -20 40 0 16 -8
32 -20 40 -12 7 -20 23 -20 40 0 16 -8 32 -20 40 -23 14 -28 80 -8 100 9 9 73
12 227 12 l215 0 53 -52z"/>
</g>
    </svg>
  </g>
  <text x="135" y="85" font-family="'Cormorant Garamond', 'Georgia', serif" font-size="72" font-weight="400" fill="#5B2D8E" letter-spacing="-0.5">verazoi</text>
  <text x="135" y="130" font-family="'Cormorant Garamond', 'Georgia', serif" font-size="24" font-weight="300" font-style="italic" fill="#5B2D8E" letter-spacing="0.5">Rooted in truth. Designed for life.</text>
</svg>