<svg xmlns="http://www.w3.org/2000/svg" viewBox="-5 0 420 140">
  <g transform="translate(0, 0)">
    <svg x="0" y="0" width="130" height="140" viewBox="0 0 512 560">
      <g transform="translate(0.000000,560.000000) scale(0.100000,-0.100000)"
fill="#5b2d8e" stroke="none">
<path d="M2515 5580 c-6 -18 -15 -20 -114 -20 -95 0 -110 -2 -126 -20 -10 -11
-30 -20 -44 -20 -15 0 -31 -8 -39 -20 -7 -11 -23 -20 -37 -20 -17 0 -37 -14
-61 -40 -25 -27 -45 -40 -63 -40 -15 0 -31 -8 -39 -20 -7 -12 -23 -20 -40 -20
-16 0 -32 -8 -40 -20 -7 -11 -23 -20 -37 -20 -17 0 -37 -14 -61 -40 -25 -27
-45 -40 -63 -40 -15 0 -31 -8 -39 -20 -7 -12 -23 -20 -40 -20 -16 0 -32 -8
-40 -20 -7 -11 -23 -20 -37 -20 -17 0 -37 -14 -61 -40 -23 -25 -45 -40 -60
-40 -15 0 -37 -15 -60 -40 -25 -27 -45 -40 -63 -40 -15 0 -31 -8 -39 -20 -7
-12 -23 -20 -40 -20 -16 0 -32 -8 -40 -20 -7 -12 -23 -20 -40 -20 -16 0 -32
-8 -40 -20 -7 -11 -23 -20 -37 -20 -17 0 -37 -14 -61 -40 -25 -27 -45 -40 -63
-40 -15 0 -31 -8 -39 -20 -7 -12 -23 -20 -40 -20 -16 0 -32 -8 -40 -20 -7 -11
-23 -20 -37 -20 -17 0 -37 -14 -61 -40 -25 -27 -45 -40 -63 -40 -15 0 -31 -8
-39 -20 -7 -11 -23 -20 -37 -20 -17 0 -37 -14 -61 -40 -25 -27 -45 -40 -63
-40 -15 0 -31 -8 -39 -20 -7 -11 -23 -20 -37 -20 -17 0 -37 -14 -61 -40 -21
-24 -45 -40 -58 -40 -31 0 -196 -166 -196 -197 0 -12 -9 -28 -20 -35 -12 -8
-20 -24 -20 -39 0 -14 -9 -34 -20 -44 -16 -15 -20 -31 -20 -86 0 -59 -3 -68
-20 -74 -20 -6 -20 -15 -20 -1145 0 -1130 0 -1139 20 -1145 16 -5 20 -15 20
-54 0 -35 5 -53 20 -66 14 -13 19 -29 18 -59 -1 -40 3 -45 128 -168 89 -89
135 -128 151 -128 13 0 28 -9 35 -20 8 -12 24 -20 39 -20 18 0 38 -13 63 -40
24 -26 44 -40 61 -40 14 0 30 -9 37 -20 8 -12 24 -20 39 -20 18 0 38 -13 63
-40 24 -26 44 -40 61 -40 14 0 30 -9 37 -20 8 -12 24 -20 39 -20 18 0 38 -13
63 -40 24 -26 44 -40 61 -40 14 0 30 -9 37 -20 8 -12 24 -20 39 -20 18 0 38
-13 63 -40 24 -26 44 -40 61 -40 14 0 30 -9 37 -20 8 -12 24 -20 40 -20 17 0
33 -8 40 -20 8 -12 24 -20 40 -20 17 0 33 -8 40 -20 8 -12 24 -20 39 -20 18 0
38 -13 63 -40 24 -26 44 -40 61 -40 14 0 30 -9 37 -20 8 -12 24 -20 39 -20 18
0 38 -13 63 -40 24 -26 44 -40 61 -40 14 0 30 -9 37 -20 8 -12 24 -20 40 -20
17 0 33 -8 40 -20 8 -12 24 -20 40 -20 17 0 33 -8 40 -20 8 -12 24 -20 40 -20
17 0 33 -8 40 -20 8 -12 24 -20 39 -20 18 0 38 -13 63 -40 24 -26 44 -40 61
-40 14 0 30 -9 37 -20 8 -12 24 -20 39 -20 14 0 34 -9 44 -20 15 -17 31 -20
106 -20 79 0 88 -2 94 -20 6 -18 15 -20 105 -20 90 0 99 2 105 20 6 17 15 20
74 20 55 0 71 4 86 20 10 11 30 20 44 20 15 0 31 8 39 20 7 12 23 20 40 20 16
0 32 8 40 20 7 12 23 20 40 20 16 0 32 8 40 20 7 11 23 20 37 20 17 0 37 14
61 40 25 27 45 40 63 40 15 0 31 8 39 20 7 12 23 20 40 20 16 0 32 8 40 20 7
11 23 20 37 20 17 0 37 14 61 40 25 27 45 40 63 40 15 0 31 8 39 20 7 11 23
20 37 20 17 0 37 14 61 40 25 27 45 40 63 40 15 0 31 8 39 20 7 12 23 20 40
20 16 0 32 8 40 20 7 11 23 20 37 20 17 0 37 14 61 40 25 27 45 40 63 40 15 0
31 8 39 20 7 12 23 20 40 20 16 0 32 8 40 20 7 12 23 20 40 20 16 0 32 8 40
20 7 11 23 20 37 20 17 0 37 14 61 40 25 27 45 40 63 40 15 0 31 8 39 20 7 12
23 20 40 20 16 0 32 8 40 20 7 11 23 20 37 20 17 0 37 14 61 40 25 27 45 40
63 40 15 0 31 8 39 20 7 12 23 20 40 20 16 0 32 8 40 20 7 11 23 20 35 20 31
0 157 125 157 156 0 13 16 36 40 58 25 22 40 45 40 59 0 13 9 32 20 42 15 13
20 31 20 66 0 39 4 49 20 54 20 6 20 15 20 1185 0 1170 0 1179 -20 1185 -16 5
-20 15 -20 54 0 35 -5 53 -20 66 -14 13 -19 29 -18 59 1 40 -3 45 -128 169
-85 84 -135 127 -150 127 -13 0 -37 17 -58 40 -24 26 -44 40 -61 40 -14 0 -30
9 -37 20 -8 12 -24 20 -40 20 -17 0 -33 8 -40 20 -8 12 -24 20 -40 20 -17 0
-33 8 -40 20 -8 12 -24 20 -39 20 -18 0 -38 13 -63 40 -24 26 -44 40 -61 40
-14 0 -30 9 -37 20 -8 12 -24 20 -39 20 -18 0 -38 13 -63 40 -24 26 -44 40
-61 40 -14 0 -30 9 -37 20 -8 12 -24 20 -40 20 -17 0 -33 8 -40 20 -8 12 -24
20 -40 20 -17 0 -33 8 -40 20 -8 12 -24 20 -39 20 -18 0 -38 13 -63 40 -24 26
-44 40 -61 40 -14 0 -30 9 -37 20 -8 12 -24 20 -39 20 -18 0 -38 13 -63 40
-24 26 -44 40 -61 40 -14 0 -30 9 -37 20 -8 12 -24 20 -39 20 -18 0 -38 13
-63 40 -24 26 -44 40 -61 40 -14 0 -30 9 -37 20 -8 12 -24 20 -40 20 -17 0
-33 8 -40 20 -8 12 -24 20 -39 20 -18 0 -38 13 -63 40 -24 26 -44 40 -61 40
-14 0 -30 9 -37 20 -8 12 -24 20 -40 20 -17 0 -33 8 -40 20 -8 12 -24 20 -39
20 -14 0 -34 9 -44 20 -15 17 -31 20 -106 20 -79 0 -88 2 -94 20 -5 17 -15 20
-65 20 -50 0 -60 -3 -65 -20z m1120 -1280 c16 -18 31 -20 160 -20 129 0 144
-2 160 -20 13 -14 31 -20 61 -20 33 0 47 -5 56 -20 8 -12 24 -20 40 -20 17 0
33 -8 40 -20 8 -12 24 -20 40 -20 17 0 33 -8 40 -20 7 -11 24 -20 38 -20 34 0
130 -95 130 -130 0 -14 9 -31 20 -38 12 -7 20 -23 20 -40 0 -16 8 -32 20 -40
17 -10 20 -23 20 -92 0 -69 -3 -82 -20 -92 -12 -8 -20 -24 -20 -40 0 -17 -8
-33 -20 -40 -12 -8 -20 -24 -20 -39 0 -19 -17 -42 -60 -83 -39 -37 -60 -65
-60 -80 0 -15 -21 -43 -60 -80 -39 -37 -60 -65 -60 -80 0 -15 -27 -48 -80
-100 -52 -51 -80 -86 -80 -100 0 -15 -28 -49 -80 -100 -52 -51 -80 -86 -80
-100 0 -15 -28 -49 -80 -100 -54 -53 -80 -86 -80 -101 0 -14 -16 -37 -40 -59
-25 -22 -40 -45 -40 -59 0 -16 -25 -48 -80 -101 -52 -51 -80 -86 -80 -100 0
-15 -28 -49 -80 -100 -52 -51 -80 -86 -80 -100 0 -15 -28 -49 -80 -100 -52
-51 -80 -86 -80 -100 0 -15 -28 -49 -80 -100 -55 -54 -80 -86 -80 -102 0 -13
-9 -28 -21 -34 -12 -7 -19 -19 -17 -32 3 -20 7 -20 293 -19 272 2 291 3 311
22 17 15 35 19 101 19 67 0 83 3 98 20 13 14 31 20 60 20 29 0 47 6 60 20 10
11 30 20 44 20 15 0 31 8 39 20 7 12 23 20 40 20 16 0 32 8 40 20 7 11 22 20
35 20 31 0 317 285 317 315 0 13 18 39 43 62 23 22 55 54 70 72 15 17 32 29
37 26 18 -11 10 -51 -15 -73 -22 -19 -24 -28 -19 -61 5 -33 3 -41 -17 -55 -19
-13 -23 -24 -21 -61 1 -35 -3 -47 -20 -60 -18 -12 -22 -24 -20 -59 1 -40 -2
-48 -38 -80 -26 -24 -40 -45 -40 -61 0 -14 -9 -30 -20 -37 -12 -8 -20 -24 -20
-39 0 -18 -13 -38 -40 -63 -24 -21 -40 -45 -40 -58 0 -30 -97 -128 -127 -128
-14 0 -37 -16 -59 -40 l-36 -40 -103 0 c-89 0 -104 -2 -120 -20 -18 -20 -31
-20 -794 -20 l-776 1 -35 30 -35 31 23 15 c12 9 22 26 22 39 0 12 10 30 22 38
18 13 22 25 20 60 -1 40 2 48 38 80 26 24 40 45 40 61 0 14 9 30 20 37 12 8
20 24 20 39 0 18 13 38 40 63 25 22 40 45 40 59 0 16 20 43 60 81 40 38 60 65
60 81 0 14 15 36 40 59 25 22 40 45 40 59 0 16 25 48 80 101 52 51 80 86 80
100 0 15 28 49 80 100 51 50 80 86 80 100 0 15 86 107 280 301 188 187 280
286 280 300 0 14 49 69 140 160 93 92 140 146 140 160 0 14 35 56 100 120 67
66 100 105 100 120 0 15 27 48 81 99 84 81 97 111 47 111 -14 0 -35 8 -45 18
-15 13 -37 17 -100 17 -67 0 -83 3 -98 20 -17 18 -31 20 -185 20 -154 0 -168
-2 -185 -20 -10 -11 -29 -20 -42 -20 -14 0 -37 -15 -59 -40 -26 -29 -44 -40
-65 -40 -25 0 -29 -4 -29 -29 0 -21 -11 -39 -40 -65 -25 -23 -40 -45 -40 -60
0 -15 -15 -37 -40 -60 -26 -24 -40 -44 -40 -61 0 -14 -9 -30 -20 -37 -12 -8
-20 -24 -20 -39 0 -18 -13 -38 -40 -63 -26 -24 -40 -44 -40 -61 0 -14 -9 -30
-20 -37 -12 -8 -20 -24 -20 -40 0 -17 -8 -33 -20 -40 -12 -8 -20 -24 -20 -40
0 -17 -8 -33 -20 -40 -12 -8 -20 -24 -20 -40 0 -17 -8 -33 -20 -40 -12 -8 -20
-24 -20 -40 0 -17 -8 -33 -20 -40 -12 -8 -20 -24 -20 -40 0 -17 -8 -33 -20
-40 -12 -8 -20 -24 -20 -40 0 -17 -8 -33 -20 -40 -12 -8 -20 -24 -20 -39 0
-18 -13 -38 -40 -63 -26 -24 -40 -44 -40 -61 0 -14 -9 -30 -20 -37 -12 -8 -20
-24 -20 -40 0 -17 -8 -33 -20 -40 -12 -8 -20 -24 -20 -40 0 -17 -8 -33 -20
-40 -12 -8 -20 -24 -20 -40 0 -17 -8 -33 -20 -40 -12 -8 -20 -24 -20 -39 0
-18 -13 -38 -40 -63 -24 -21 -40 -45 -40 -58 -1 -13 -14 -39 -30 -58 l-30 -34
-30 34 c-16 19 -29 45 -30 58 0 13 -16 37 -40 58 -27 25 -40 45 -40 63 0 15
-8 31 -20 39 -12 7 -20 23 -20 40 0 16 -8 32 -20 40 -12 7 -20 23 -20 40 0 16
-8 32 -20 40 -12 7 -20 23 -20 40 0 16 -8 32 -20 40 -12 7 -20 23 -20 40 0 16
-8 32 -20 40 -11 7 -20 23 -20 37 0 17 -14 37 -40 61 -27 25 -40 45 -40 63 0
15 -8 31 -20 39 -11 7 -20 23 -20 37 0 17 -14 37 -40 61 -27 25 -40 45 -40 63
0 15 -8 31 -20 39 -12 7 -20 23 -20 40 0 16 -8 32 -20 40 -12 7 -20 23 -20 40
0 16 -8 32 -20 40 -11 7 -20 23 -20 37 0 17 -14 37 -40 61 -27 25 -40 45 -40
63 0 15 -8 31 -20 39 -12 7 -20 23 -20 40 0 16 -8 32 -20 40 -11 7 -20 23 -20
37 0 17 -14 37 -40 61 -24 22 -40 45 -40 59 0 29 -85 115 -115 115 -12 0 -30
9 -40 20 -13 14 -31 20 -60 20 -29 0 -47 6 -60 20 -16 18 -31 20 -120 20 -89
0 -104 2 -120 20 -14 16 -31 20 -79 20 -59 0 -61 1 -113 52 -44 44 -53 58 -53
88 0 41 14 60 45 60 12 0 30 9 40 20 18 19 31 20 416 20 388 0 399 -1 411 -20
8 -12 24 -20 40 -20 17 0 33 -8 40 -20 7 -11 24 -20 38 -20 33 0 170 -135 170
-167 0 -14 16 -37 40 -59 27 -25 40 -45 40 -63 0 -15 8 -31 20 -39 12 -7 20
-23 20 -40 0 -16 8 -32 20 -40 15 -9 19 -22 18 -57 -2 -37 2 -48 20 -61 13 -9
22 -26 22 -42 0 -16 8 -32 20 -40 12 -7 20 -23 20 -40 0 -16 8 -32 20 -40 15
-9 19 -22 18 -57 -2 -37 2 -48 20 -61 19 -13 22 -24 22 -82 0 -56 3 -69 20
-80 17 -10 20 -23 20 -80 0 -57 3 -69 20 -80 17 -10 20 -21 18 -60 -2 -36 0
-47 14 -50 25 -5 68 44 68 78 0 20 6 31 20 35 21 7 24 19 21 72 -2 23 3 36 18
45 13 8 21 23 21 40 0 17 8 33 20 40 12 8 20 24 20 40 0 16 9 33 22 42 18 13
22 24 20 61 -1 35 3 48 18 57 12 8 20 24 20 40 0 17 8 33 20 40 12 8 20 24 20
40 0 17 8 33 20 40 12 8 20 24 20 40 0 17 8 33 20 40 12 8 20 24 20 39 0 18
13 38 40 63 25 23 40 45 40 60 0 15 15 37 40 60 24 21 40 45 40 58 0 30 97
128 127 128 14 0 37 16 59 40 25 27 45 40 63 40 15 0 31 8 39 20 9 15 23 20
56 20 30 0 48 6 61 20 16 18 31 20 120 20 89 0 104 2 120 20 14 16 31 20 75
20 44 0 61 -4 75 -20z m-2480 -520 c10 -11 28 -20 40 -20 27 0 45 -18 45 -47
0 -14 15 -37 40 -59 27 -25 40 -45 40 -63 0 -15 8 -31 20 -39 11 -7 20 -23 20
-37 0 -17 14 -37 40 -61 27 -25 40 -45 40 -63 0 -15 8 -31 20 -39 12 -7 20
-23 20 -40 0 -16 8 -32 20 -40 12 -7 20 -23 20 -40 0 -16 8 -32 20 -40 11 -7
20 -23 20 -37 0 -17 14 -37 40 -61 27 -25 40 -45 40 -63 0 -15 8 -31 20 -39
11 -7 20 -23 20 -37 0 -17 14 -37 40 -61 27 -25 40 -45 40 -63 0 -15 8 -31 20
-39 11 -7 20 -23 20 -37 0 -17 14 -37 40 -61 27 -25 40 -45 40 -63 0 -15 8
-31 20 -39 12 -7 20 -23 20 -40 0 -16 8 -32 20 -40 11 -7 20 -23 20 -37 0 -17
14 -37 40 -61 27 -25 40 -45 40 -63 0 -15 8 -31 20 -39 11 -7 20 -23 20 -37 0
-17 14 -37 40 -61 27 -25 40 -45 40 -63 0 -15 8 -31 20 -39 12 -7 20 -23 20
-40 0 -16 8 -32 20 -40 29 -18 28 -85 -2 -106 -18 -13 -22 -25 -20 -60 1 -40
-2 -48 -38 -80 -26 -24 -40 -45 -40 -61 0 -14 -9 -30 -20 -37 -12 -8 -20 -24
-20 -39 0 -18 -13 -38 -40 -63 -24 -21 -40 -45 -40 -58 0 -25 -59 -88 -82 -88
-21 0 -38 21 -38 47 0 14 -15 37 -40 59 -27 25 -40 45 -40 63 0 15 -8 31 -20
39 -12 7 -20 23 -20 40 0 16 -8 32 -20 40 -11 7 -20 23 -20 37 0 17 -14 37
-40 61 -27 25 -40 45 -40 63 0 15 -8 31 -20 39 -11 7 -20 23 -20 37 0 17 -14
37 -40 61 -27 25 -40 45 -40 63 0 15 -8 31 -20 39 -12 7 -20 23 -20 40 0 16
-8 32 -20 40 -11 7 -20 23 -20 37 0 17 -14 37 -40 61 -27 25 -40 45 -40 63 0
15 -8 31 -20 39 -12 7 -20 23 -20 40 0 16 -8 32 -20 40 -11 7 -20 23 -20 37 0
17 -14 37 -40 61 -27 25 -40 45 -40 63 0 15 -8 31 -20 39 -12 7 -20 23 -20 40
0 16 -8 32 -20 40 -12 7 -20 23 -20 40 0 16 -8 32 -20 40 -12 7 -20 23 -20 40
0 16 -8 32 -20 40 -12 7 -20 23 -20 40 0 16 -8 32 -20 40 -12 7 -20 23 -20 40
0 16 -8 32 -20 40 -11 7 -20 23 -20 37 0 17 -14 37 -40 61 -27 25 -40 45 -40
63 0 15 -8 31 -20 39 -12 7 -20 23 -20 40 0 16 -8 32 -20 40 -12 7 -20 23 -20
40 0 16 -8 32 -20 40 -12 7 -20 23 -20 40 0 16 -8 32 -20 40 -12 7 -20 23 -20
40 0 16 -8 32 -20 40 -12 7 -20 23 -20 40 0 16 -8 32 -20 40 -22 14 -26 42 -8
60 8 8 52 12 133 12 109 0 124 2 140 20 16 17 31 20 115 20 84 0 99 -3 115
-20z"/>
</g>
    </svg>
  </g>
  <text x="145" y="95" font-family="'Cormorant Garamond', 'Georgia', serif" font-size="72" font-weight="400" fill="#5B2D8E" letter-spacing="-0.5">verazoi</text>
</svg>