<svg xmlns="http://www.w3.org/2000/svg" viewBox="0 0 764 536">
<g transform="translate(0.000000,536.000000) scale(0.100000,-0.100000)"
fill="#5b2d8e" stroke="none">
<path d="M5192 5340 c-10 -17 -23 -20 -83 -20 -56 0 -76 -4 -96 -20 -14 -11
-40 -20 -57 -20 -19 0 -38 -8 -49 -20 -9 -11 -29 -20 -46 -20 -15 0 -40 -9
-54 -20 -14 -11 -30 -20 -36 -20 -12 0 -98 -57 -106 -71 -4 -5 -13 -9 -22 -9
-14 0 -94 -60 -136 -102 -10 -10 -24 -18 -32 -18 -21 0 -225 -200 -240 -237
-7 -17 -36 -55 -64 -84 -31 -32 -51 -62 -51 -75 0 -13 -9 -29 -19 -36 -11 -8
-31 -36 -45 -63 -15 -28 -33 -55 -41 -61 -7 -5 -25 -32 -40 -60 -14 -27 -31
-53 -38 -59 -7 -5 -26 -35 -41 -65 -16 -30 -35 -59 -42 -63 -8 -4 -14 -19 -14
-32 0 -14 -9 -30 -20 -37 -12 -8 -20 -24 -20 -40 0 -17 -8 -33 -20 -40 -12 -8
-20 -24 -20 -40 0 -17 -8 -33 -20 -40 -12 -8 -20 -24 -20 -41 0 -15 -9 -35
-20 -44 -11 -10 -20 -28 -20 -40 0 -13 -9 -31 -20 -40 -11 -10 -20 -27 -20
-39 0 -12 -9 -33 -20 -47 -11 -14 -20 -34 -20 -45 0 -10 -9 -27 -20 -37 -11
-10 -20 -28 -20 -40 0 -12 -8 -33 -19 -46 -10 -13 -21 -40 -25 -61 -4 -20 -13
-39 -21 -42 -9 -3 -15 -18 -15 -36 0 -19 -7 -34 -20 -42 -12 -8 -20 -24 -20
-40 0 -17 -8 -33 -20 -40 -13 -8 -20 -24 -20 -44 0 -17 -9 -43 -20 -57 -11
-14 -20 -39 -20 -56 0 -18 -7 -35 -19 -43 -11 -8 -23 -27 -27 -43 -4 -17 -12
-37 -19 -45 -7 -8 -15 -24 -17 -35 -6 -37 -33 -23 -36 20 -2 23 -12 47 -22 58
-14 12 -19 30 -18 63 0 35 -4 49 -20 60 -17 12 -21 24 -20 59 2 35 -3 49 -20
65 -16 15 -22 32 -22 62 0 24 -7 49 -16 59 -9 10 -18 37 -21 61 -3 24 -14 54
-24 67 -11 13 -19 40 -19 60 0 25 -6 40 -20 49 -15 9 -20 23 -20 55 0 30 -6
48 -20 60 -12 10 -20 29 -20 48 0 17 -9 42 -20 56 -11 14 -20 39 -20 56 0 17
-7 38 -15 47 -9 10 -19 35 -22 56 -3 22 -15 45 -25 52 -11 8 -18 26 -18 46 0
20 -6 36 -14 39 -8 3 -18 22 -21 41 -4 19 -13 40 -20 46 -8 6 -17 24 -20 40
-3 16 -12 34 -20 40 -8 6 -17 24 -20 40 -3 16 -12 34 -20 40 -8 6 -17 24 -20
40 -3 16 -12 34 -20 40 -8 6 -17 24 -20 40 -3 16 -12 31 -20 33 -7 3 -16 21
-20 39 -4 18 -16 39 -26 46 -11 7 -19 24 -19 37 0 14 -14 38 -33 58 -19 18
-37 45 -41 60 -3 15 -24 44 -46 63 -22 20 -40 42 -40 49 0 21 -87 111 -143
149 -29 19 -65 48 -82 65 -16 17 -40 31 -52 31 -12 0 -30 8 -40 19 -10 10 -35
21 -57 24 -21 3 -46 13 -56 22 -11 10 -37 15 -84 15 -47 0 -78 6 -106 20 -38
19 -59 20 -802 20 l-763 0 -47 -52 c-48 -51 -48 -51 -48 -123 0 -50 4 -76 14
-84 8 -7 17 -23 20 -36 4 -14 12 -25 20 -25 7 0 21 -9 31 -20 10 -11 26 -20
37 -20 10 0 26 -9 35 -20 14 -16 30 -20 79 -20 45 0 68 -5 86 -19 20 -16 44
-20 155 -23 108 -2 134 -6 150 -20 16 -14 38 -18 110 -18 75 0 95 -3 116 -20
18 -14 40 -20 79 -20 36 0 63 -6 83 -20 17 -11 44 -20 61 -20 18 0 38 -8 49
-20 10 -11 26 -20 37 -20 10 0 26 -9 35 -20 10 -11 25 -20 34 -20 22 0 70 -47
101 -101 14 -24 42 -62 61 -83 20 -21 38 -50 42 -64 3 -14 14 -31 23 -38 9 -7
28 -34 42 -60 14 -26 39 -61 57 -76 17 -16 35 -43 38 -59 4 -17 24 -47 46 -66
23 -21 39 -44 39 -58 0 -12 15 -39 34 -60 19 -20 37 -49 41 -63 3 -14 15 -32
26 -40 11 -7 19 -25 19 -40 0 -16 8 -32 20 -40 12 -7 20 -23 20 -40 0 -16 8
-32 20 -40 11 -7 20 -22 20 -35 0 -13 15 -38 35 -57 19 -18 37 -47 41 -64 4
-17 13 -35 20 -41 7 -5 25 -32 40 -60 14 -27 34 -55 45 -63 11 -7 19 -25 19
-40 0 -16 8 -32 20 -40 11 -7 20 -23 20 -37 0 -13 6 -28 13 -32 19 -12 55 -68
62 -96 4 -14 13 -28 20 -30 7 -3 22 -26 34 -50 12 -25 33 -57 46 -71 14 -15
25 -38 25 -50 0 -13 6 -26 14 -29 14 -5 33 -35 56 -86 6 -13 17 -29 25 -35 8
-6 26 -33 41 -61 14 -27 34 -55 45 -63 11 -7 19 -25 19 -40 0 -16 8 -32 20
-40 12 -7 20 -23 20 -40 0 -16 8 -32 20 -40 11 -7 20 -22 20 -34 0 -12 7 -30
17 -40 18 -20 37 -50 53 -87 6 -14 20 -31 30 -38 12 -8 20 -26 20 -41 0 -16 8
-32 20 -40 11 -7 20 -23 20 -37 0 -13 6 -28 13 -32 8 -4 27 -33 43 -63 16 -30
37 -61 47 -68 9 -7 17 -23 17 -34 0 -11 18 -40 40 -64 24 -26 40 -53 40 -68 0
-13 6 -26 14 -29 7 -3 24 -27 36 -53 13 -26 34 -56 47 -67 12 -11 23 -27 23
-34 0 -30 84 -126 106 -121 21 5 174 180 174 199 0 10 8 24 19 31 10 7 21 23
25 36 4 12 23 46 42 75 19 28 34 57 34 64 0 6 8 18 19 25 10 7 22 24 26 37 4
14 23 46 41 73 19 26 34 55 34 63 0 8 9 20 20 27 12 8 20 24 20 40 0 15 8 33
19 40 10 7 22 24 26 37 4 14 23 46 41 73 19 26 34 55 34 63 0 8 9 20 20 27 12
8 20 24 20 40 0 17 8 33 20 40 12 8 20 24 20 40 0 17 8 33 20 40 12 8 20 24
20 40 0 17 8 33 20 40 12 8 20 24 20 40 0 15 8 33 19 40 11 8 23 27 27 42 4
16 15 37 24 46 10 10 29 43 44 74 15 31 31 56 36 56 6 0 10 11 10 23 0 13 9
32 20 42 11 10 20 29 20 41 0 13 9 29 20 36 12 8 20 24 20 40 0 17 8 33 20 40
12 8 20 24 20 40 0 15 8 33 19 40 10 7 21 24 26 36 4 13 20 43 35 65 15 23 35
59 43 80 9 20 21 37 26 37 6 0 11 11 11 25 0 14 9 30 20 37 12 8 20 24 20 40
0 15 8 33 19 40 10 7 22 24 26 37 4 14 23 46 41 73 19 26 34 55 34 63 0 8 9
20 20 27 12 8 20 24 20 40 0 17 8 33 20 40 11 7 20 24 20 38 0 15 16 42 40 68
22 24 40 51 40 62 0 10 9 25 19 32 11 8 23 26 26 40 4 14 22 43 41 63 19 21
34 48 34 60 0 14 16 37 40 59 22 19 42 47 46 60 3 14 29 51 58 83 28 32 65 78
81 103 34 51 121 140 137 140 6 0 32 18 58 40 26 22 58 40 71 40 14 0 30 9 37
20 9 15 23 20 60 20 35 0 52 5 65 20 16 19 29 20 271 20 238 0 255 -1 279 -20
20 -16 40 -20 96 -20 59 0 74 -3 88 -20 14 -16 30 -20 74 -20 41 0 63 -5 82
-20 16 -13 40 -20 66 -20 29 0 46 -6 58 -20 10 -11 30 -20 45 -20 37 0 76 -19
83 -41 9 -27 -2 -39 -35 -39 -33 0 -63 -29 -175 -170 -38 -47 -114 -133 -169
-191 -56 -59 -125 -135 -154 -171 -63 -77 -119 -138 -264 -285 -61 -62 -125
-135 -144 -164 -18 -29 -111 -131 -207 -228 -95 -97 -200 -210 -232 -251 -32
-41 -148 -166 -257 -277 -109 -111 -198 -208 -198 -216 0 -18 -9 -28 -294
-317 -133 -135 -258 -268 -277 -297 -19 -29 -78 -97 -132 -151 -53 -54 -97
-103 -97 -109 0 -19 -53 -81 -184 -213 -73 -74 -145 -156 -160 -182 -15 -26
-42 -60 -61 -76 -18 -16 -36 -40 -40 -53 -8 -26 -95 -139 -107 -139 -5 0 -8
-11 -8 -24 0 -15 -15 -37 -40 -60 -22 -19 -42 -47 -46 -61 -3 -14 -31 -51 -61
-83 -29 -31 -57 -68 -60 -81 -3 -14 -21 -40 -39 -58 -19 -18 -36 -44 -40 -57
-3 -13 -21 -40 -39 -61 -19 -20 -37 -46 -41 -58 -8 -26 -44 -79 -61 -90 -7 -4
-13 -19 -13 -32 0 -13 -8 -30 -18 -37 -18 -12 -37 -43 -61 -96 -6 -12 -18 -25
-26 -28 -8 -4 -15 -18 -15 -35 0 -16 -8 -33 -19 -41 -10 -7 -32 -42 -50 -78
-33 -68 -43 -87 -73 -132 -10 -15 -18 -39 -18 -53 l0 -25 1570 0 c927 0 1570
4 1570 9 0 19 68 31 184 31 105 0 124 3 146 20 18 14 41 20 86 20 48 0 65 4
79 20 11 13 31 20 52 20 20 0 46 9 60 20 14 11 31 20 37 20 6 0 19 9 29 20 9
11 26 20 37 20 23 0 306 280 316 313 7 23 80 117 101 130 7 4 13 17 13 28 0
11 18 42 40 68 22 26 40 55 40 64 0 9 9 22 20 29 11 7 20 23 20 35 0 13 8 31
18 41 16 16 41 59 87 152 10 19 26 52 36 72 11 20 19 48 19 62 0 15 9 31 20
38 12 8 20 24 20 41 0 15 9 35 20 44 12 11 20 30 20 49 0 17 9 43 20 57 11 14
20 37 20 52 0 15 9 38 20 52 11 14 20 41 20 59 0 21 8 42 20 54 15 15 20 33
20 69 0 33 6 56 20 74 16 20 20 40 20 97 0 63 2 72 20 77 18 5 20 14 20 84 0
69 -2 79 -17 79 -21 -1 -89 -85 -104 -129 -6 -16 -17 -32 -25 -35 -8 -3 -14
-17 -14 -30 0 -14 -8 -31 -18 -38 -18 -12 -37 -43 -61 -96 -6 -12 -18 -25 -26
-28 -8 -4 -15 -18 -15 -33 0 -18 -13 -40 -40 -66 -22 -22 -40 -49 -40 -61 0
-13 -16 -36 -39 -57 -22 -19 -42 -46 -46 -59 -7 -22 -60 -92 -95 -126 -9 -10
-20 -29 -23 -43 -8 -30 -249 -269 -272 -269 -9 0 -38 -20 -64 -45 -26 -25 -51
-45 -54 -45 -9 0 -96 -60 -102 -71 -4 -5 -14 -9 -24 -9 -10 0 -26 -9 -36 -20
-10 -11 -23 -20 -29 -20 -7 0 -19 -9 -29 -20 -9 -11 -26 -20 -37 -20 -11 0
-29 -9 -40 -20 -11 -11 -29 -20 -41 -20 -11 0 -32 -9 -46 -20 -14 -11 -32 -20
-40 -20 -8 0 -26 -9 -40 -20 -14 -11 -36 -20 -48 -20 -12 0 -32 -9 -45 -20
-13 -11 -36 -20 -52 -20 -17 0 -41 -9 -55 -20 -17 -13 -41 -20 -68 -20 -28 0
-50 -7 -65 -20 -18 -15 -37 -20 -85 -20 -49 0 -66 -4 -80 -20 -16 -17 -31 -20
-107 -20 -75 0 -93 -3 -118 -21 -28 -21 -35 -22 -227 -16 -109 3 -216 11 -238
17 -24 7 -149 14 -310 17 -148 3 -274 9 -279 14 -6 5 5 22 25 41 20 18 50 56
68 83 17 28 65 84 105 125 40 41 77 85 81 98 4 13 40 58 81 100 41 42 84 95
95 117 11 22 46 67 78 100 31 33 70 80 87 105 16 25 72 89 124 143 52 54 113
125 136 158 22 33 66 86 97 118 31 32 57 67 57 77 0 9 29 48 65 85 36 37 65
72 65 79 0 16 29 52 113 140 40 41 86 95 102 120 32 48 32 47 116 136 31 32
59 69 63 81 4 12 32 48 62 80 30 32 57 67 60 78 9 26 33 57 100 126 30 31 54
65 54 74 0 10 42 61 93 114 51 53 107 119 125 146 18 28 57 75 86 105 28 30
63 73 76 95 13 22 68 86 122 143 54 56 98 110 98 120 0 10 27 44 60 77 34 33
81 90 107 128 25 37 60 80 79 96 18 17 36 41 39 54 4 14 21 41 38 60 18 19 45
59 61 89 16 29 35 57 43 61 7 4 13 19 13 32 0 14 9 30 20 37 12 8 20 24 20 41
0 15 9 40 19 55 18 25 34 128 33 217 0 173 -50 281 -200 428 -57 56 -108 104
-115 106 -20 6 -91 55 -100 68 -4 7 -18 13 -31 13 -13 0 -31 9 -41 20 -10 11
-26 20 -37 20 -10 0 -27 9 -38 20 -11 11 -31 20 -43 20 -13 0 -32 9 -42 20
-12 13 -31 20 -57 20 -26 0 -44 6 -55 20 -13 15 -30 20 -64 20 -33 0 -51 5
-64 20 -14 16 -31 20 -81 20 -49 0 -67 4 -81 19 -15 16 -35 20 -126 23 -89 2
-111 6 -121 21 -12 16 -46 17 -462 17 -438 0 -449 0 -462 -20z"/>
<path d="M369 4475 c-3 -2 -72 -6 -154 -9 -87 -3 -164 -10 -182 -18 -29 -11
-33 -17 -33 -49 0 -28 5 -38 20 -42 15 -4 20 -14 20 -39 0 -22 6 -37 20 -46
12 -7 20 -23 20 -40 0 -16 8 -32 20 -40 11 -7 20 -23 20 -37 0 -13 6 -28 14
-32 8 -4 28 -36 46 -70 18 -35 36 -63 40 -63 4 0 11 -15 14 -34 4 -19 13 -36
20 -39 14 -6 36 -40 56 -89 6 -14 17 -29 25 -32 7 -2 16 -20 20 -38 4 -18 16
-39 26 -46 11 -7 19 -25 19 -40 0 -16 8 -32 20 -40 12 -7 20 -23 20 -40 0 -16
8 -32 20 -40 11 -7 20 -20 20 -29 0 -9 18 -38 40 -64 22 -26 40 -58 40 -71 0
-13 9 -29 20 -36 12 -7 20 -23 20 -40 0 -16 8 -32 20 -40 11 -7 20 -19 20 -27
0 -8 16 -37 35 -65 19 -27 37 -61 41 -75 4 -15 12 -29 19 -31 7 -3 16 -19 19
-36 3 -17 15 -37 26 -45 12 -8 20 -26 20 -41 0 -16 8 -32 20 -40 11 -7 20 -22
20 -35 0 -12 9 -30 20 -40 11 -9 20 -23 20 -30 0 -7 15 -36 34 -64 19 -29 38
-63 42 -75 4 -13 15 -29 25 -36 11 -7 19 -23 19 -34 0 -12 7 -28 15 -37 8 -9
23 -25 33 -37 11 -12 22 -34 26 -50 4 -15 16 -34 27 -42 11 -7 19 -25 19 -40
0 -16 8 -32 20 -40 11 -7 20 -23 20 -37 0 -13 6 -28 13 -32 8 -4 27 -33 43
-63 16 -30 37 -61 47 -68 9 -7 17 -25 17 -40 0 -15 8 -32 18 -38 9 -7 28 -33
42 -60 14 -27 33 -55 43 -62 9 -7 17 -26 17 -41 0 -16 6 -31 14 -34 7 -3 24
-27 36 -53 13 -26 34 -56 47 -67 13 -12 23 -32 23 -46 0 -15 8 -31 18 -37 9
-7 28 -33 42 -60 14 -27 30 -53 37 -59 7 -5 24 -32 38 -59 15 -28 33 -55 40
-60 8 -6 26 -33 40 -60 15 -28 33 -55 41 -61 15 -11 35 -42 54 -84 6 -14 20
-31 30 -38 12 -8 20 -26 20 -41 0 -15 8 -32 18 -38 9 -7 28 -33 42 -60 14 -27
33 -55 43 -62 9 -7 17 -24 17 -36 0 -13 15 -40 34 -61 19 -20 37 -49 41 -63 3
-14 14 -31 23 -38 9 -7 28 -34 42 -61 14 -26 33 -54 43 -61 9 -7 17 -25 17
-40 0 -15 8 -32 18 -38 9 -6 28 -33 41 -60 14 -27 33 -55 43 -62 10 -7 18 -24
18 -36 0 -13 15 -40 34 -61 19 -20 37 -47 40 -60 3 -12 21 -39 40 -60 19 -20
37 -48 40 -61 9 -34 53 -74 82 -74 19 0 28 8 39 34 8 18 30 47 50 64 19 17 35
40 35 51 0 19 42 78 67 94 7 4 13 19 13 32 0 13 8 30 19 37 10 7 21 23 25 36
10 30 57 102 68 102 4 0 8 11 8 24 0 14 9 31 20 39 11 8 23 28 26 45 4 18 10
32 14 32 4 0 22 28 40 63 18 34 38 66 46 70 8 4 14 18 14 31 0 13 9 31 20 41
11 10 20 29 20 42 0 13 9 31 20 40 11 10 20 27 20 39 0 11 9 29 20 39 15 14
20 31 20 69 0 40 -4 54 -20 64 -12 7 -20 23 -20 40 0 16 -8 32 -20 40 -12 7
-20 23 -20 40 0 16 -8 32 -20 40 -11 7 -20 23 -20 36 0 12 -8 30 -17 39 -10 9
-29 37 -43 64 -14 26 -33 54 -42 61 -10 7 -18 20 -18 29 0 9 -18 38 -40 64
-22 26 -40 58 -40 71 0 13 -8 28 -17 34 -10 7 -29 33 -43 60 -14 27 -33 55
-42 62 -10 7 -18 24 -18 37 0 14 -14 38 -33 58 -19 18 -37 46 -41 62 -4 16
-15 34 -24 41 -10 7 -28 34 -41 60 -14 27 -33 55 -43 62 -10 7 -18 24 -18 36
0 13 -15 40 -34 61 -19 20 -37 49 -41 63 -3 14 -15 32 -26 40 -11 8 -19 25
-19 41 0 16 -6 31 -13 34 -8 3 -26 30 -42 60 -15 31 -33 58 -40 61 -7 2 -16
20 -20 38 -4 18 -16 39 -26 46 -11 7 -19 20 -19 29 0 9 -15 35 -34 58 -19 23
-38 55 -42 71 -4 16 -13 34 -20 39 -8 6 -25 32 -40 60 -14 27 -34 55 -45 63
-10 7 -19 23 -19 35 0 12 -15 38 -34 59 -18 20 -36 47 -40 61 -3 13 -21 41
-40 62 -19 20 -37 49 -41 63 -3 14 -15 32 -26 40 -10 7 -19 20 -19 29 0 9 -18
38 -40 64 -23 27 -40 58 -40 72 0 14 -6 27 -14 30 -7 3 -24 27 -36 53 -13 26
-34 56 -47 67 -12 11 -23 30 -23 41 0 12 -15 37 -34 58 -18 20 -37 49 -40 64
-4 16 -16 34 -27 42 -10 7 -19 20 -19 28 0 8 -15 36 -34 62 -18 27 -37 59 -41
73 -4 13 -15 29 -24 36 -9 6 -27 33 -41 60 -14 26 -30 52 -37 58 -7 5 -24 33
-38 60 -15 28 -32 55 -39 60 -7 6 -16 22 -19 37 -6 24 -23 47 -70 96 -6 7 -26
24 -43 37 l-32 25 -364 0 c-201 0 -367 -2 -369 -5z"/>
</g>
</svg>